<?xml version="1.0" encoding="utf-8"?>
<!-- Generator: Adobe Illustrator 19.1.0, SVG Export Plug-In . SVG Version: 6.00 Build 0)  -->
<svg version="1.1" id="Capa_1" xmlns="http://www.w3.org/2000/svg" xmlns:xlink="http://www.w3.org/1999/xlink" x="0px" y="0px"
	 viewBox="0 0 198.1 44.2" style="enable-background:new 0 0 198.1 44.2;" xml:space="preserve">
<style type="text/css">
	.st0{fill:#FFFFFF;}
	.st1{opacity:0.3;fill-rule:evenodd;clip-rule:evenodd;fill:#FFFFFF;}
	.st2{opacity:0.7;fill-rule:evenodd;clip-rule:evenodd;fill:#FFFFFF;}
	.st3{opacity:0.1;fill-rule:evenodd;clip-rule:evenodd;fill:#FFFFFF;}
</style>
<g id="XMLID_2968_">
	<path id="XMLID_2981_" class="st0" d="M198.1,8.5c0-0.4-0.4-0.8-0.8-0.8h-2.8c-0.5,0-0.8,0.4-0.8,0.8v27.3c0,0.4,0.4,0.8,0.8,0.8
		h2.8c0.5,0,0.8-0.4,0.8-0.8V8.5z"/>
	<path id="XMLID_2980_" class="st0" d="M84,7.7h-2.7c-0.5,0-0.8,0.4-0.8,0.8l0,19.2L62.3,8.1c0,0-0.3-0.4-0.8-0.4
		c-0.5,0-0.9,0-0.9,0c-0.4,0-0.8,0.4-0.8,0.8v26.2v1.2c0,0.4,0.4,0.8,0.8,0.8h2.7c0.5,0,0.8-0.4,0.8-0.8l0-19.7l18.8,20.2
		c0,0,0.4,0.3,0.6,0.3c0.5,0,0.6,0,0.6,0c0.4,0,0.8-0.4,0.8-0.8l0-0.5V8.5C84.8,8.1,84.4,7.7,84,7.7z"/>
	<path id="XMLID_2979_" class="st0" d="M110.5,36.7h1.1c0.5,0,0.8-0.4,0.8-0.8v-2.5c0-0.4-0.3-0.8-0.8-0.8h-7.5l0,0h-3.3v-9h0.6l0,0
		h10.2c0.5,0,0.8-0.4,0.8-0.8v-2.5c0-0.4-0.3-0.8-0.8-0.8h-0.4v0h-10.4v-7.6h10.8c0.5,0,0.8-0.4,0.8-0.8V8.5c0-0.4-0.3-0.8-0.8-0.8
		h-7.5h-6.8c-0.5,0-0.8,0.4-0.8,0.8v27.3c0,0.4,0.3,0.8,0.8,0.8L110.5,36.7L110.5,36.7z"/>
	<path id="XMLID_2978_" class="st0" d="M182.1,8.5c0-0.4-0.4-0.8-0.8-0.8h-2.7c-0.5,0-0.8,0.4-0.8,0.8l0,16.3c0,2.5-0.2,3.7-0.9,4.9
		c-1,1.8-3.1,2.9-5.3,2.9c-2.3,0-4.3-1.2-5.3-2.9c-0.7-1.2-0.9-2.4-0.9-4.9l0-16.3c0-0.4-0.4-0.8-0.8-0.8h-2.7
		c-0.5,0-0.8,0.4-0.8,0.8l0,17.4c0,2.8,0.7,4.8,2.2,6.7c2,2.5,5.1,4,8.4,4c3.2,0,6.3-1.5,8.3-4c1.5-1.9,2.2-4,2.2-6.7L182.1,8.5z"/>
	<g id="XMLID_2973_">
		<path id="XMLID_2975_" class="st0" d="M144.4,34.4c-2.3,1.5-5.1,2.3-7.8,2.3c-4.1,0-8.2-1.8-11-5c-2.3-2.5-3.5-5.8-3.5-9.4
			c0-8.1,6.5-14.6,14.6-14.6c8.1,0,14.6,6.6,14.6,14.8c0,3.8-1.2,6.7-4,9.6 M144.4,29.2c1.9-2,2.7-4,2.7-6.9c0-6-4.5-10.6-10.4-10.6
			c-5.9,0-10.3,4.5-10.3,10.7c0,3.1,1,5.5,3,7.4c2,1.9,4.6,3,7.1,3c1.7,0,3.6-0.5,5-1.3"/>
		<path id="XMLID_2974_" class="st0" d="M150.7,35.5c0.7,0.7,0.4,1.2-0.5,1.2l-2.9,0c-0.4,0-0.9-0.2-1.2-0.5l-9.5-9.3
			c-0.6-0.6-0.2-1.7,0.7-1.7l2.2,0c0.4,0,0.9,0.2,1.2,0.5L150.7,35.5z"/>
	</g>
	<g id="XMLID_2969_">
		<path id="XMLID_2972_" class="st1" d="M4.8,10.3l19.5-10c1.2-0.6,2.6-0.3,3.5,0.6l16.7,18.8c1,1.1,1,2.8,0,3.9L26.4,43
			c-1.8,1.7-4.7,1.5-6.2-0.4L2.6,19.1C0.4,16.1,1.5,12,4.8,10.3"/>
		<path id="XMLID_2971_" class="st2" d="M1.1,19.5L13.8,2.3c0.8-1,2.2-1.4,3.4-0.9l23.8,9.6c1.4,0.6,2.2,2.1,1.8,3.5l-7,25.1
			c-0.8,2.3-3.5,3.4-5.7,2.3L3.4,28.3C0,26.6-1,22.5,1.1,19.5"/>
		<path id="XMLID_2970_" class="st3" d="M34.2,8.1l-14-5.7L9.9,7.7L2.1,18.3c0.1,0.3,0.3,0.6,0.5,0.8l10.5,14.1l15.3,7.7l10.2-11
			l3.6-12.8L34.2,8.1z"/>
	</g>
</g>
</svg>
